<svg id="Layer_1" data-name="Layer 1" xmlns="http://www.w3.org/2000/svg" viewBox="0 0 2400 2340.74"><defs><style>.cls-1{fill:#5c6784;fill-rule:evenodd;}</style></defs><title>github-icon</title><path class="cls-1" d="M1199.91,29.26C537.3,29.26,0,566.52,0,1229.33c0,530.13,343.81,979.91,820.7,1138.61,60,11,81.9-26,81.9-57.85,0-28.48-1-104-1.62-204.09-333.8,72.52-404.23-160.86-404.23-160.86-54.57-138.63-133.24-175.53-133.24-175.53-109-74.46,8.25-72.95,8.25-72.95,120.42,8.49,183.8,123.67,183.8,123.67,107.05,183.38,280.86,130.42,349.23,99.7,10.91-77.54,41.91-130.42,76.19-160.42-266.47-30.28-546.6-133.23-546.6-593.08,0-131,46.76-238.12,123.52-322C545.54,814.17,504.36,692.16,569.64,527c0,0,100.76-32.27,330,123C995.35,623.35,1098,610,1200.05,609.58,1302,610,1404.62,623.35,1500.47,650c229.1-155.29,329.67-123,329.67-123,65.47,165.21,24.28,287.22,11.94,317.58,76.91,83.88,123.35,191,123.35,322,0,461-280.57,562.44-547.9,592.14,43.09,37,81.47,110.29,81.47,222.23,0,160.42-1.47,289.85-1.47,329.19,0,32.09,21.61,69.43,82.51,57.71,476.43-159,819.94-608.48,819.94-1138.47C2400,566.52,1862.66,29.26,1199.91,29.26Z" transform="translate(0.02 -29.26)"/></svg>