<svg width="2326" height="2494" viewBox="0 0 2326 2494" fill="none" xmlns="http://www.w3.org/2000/svg">
<path fill-rule="evenodd" clip-rule="evenodd" d="M1657.75 1900.5C1970.07 1863.21 2241.98 1670.78 2276.15 1494.93C2330 1217.93 2325.57 818.967 2325.57 818.967C2325.57 278.23 1971.32 119.748 1971.32 119.748C1792.69 37.6848 1485.95 3.20094 1167.34 0.581909H1159.48C840.831 3.20094 534.311 37.6848 355.687 119.748C355.687 119.748 1.43197 278.23 1.43197 818.967C1.43197 851.815 1.26088 886.366 1.08276 922.334C0.589342 1021.97 0.0420313 1132.49 2.92856 1247.86C15.7743 1776.66 99.8639 2297.85 588.75 2427.27C814.173 2486.92 1007.7 2499.42 1163.6 2490.84C1446.26 2475.16 1604.93 2389.98 1604.93 2389.98L1595.61 2184.85C1595.61 2184.85 1393.6 2248.55 1166.74 2240.79C942.007 2233.09 704.735 2216.56 668.381 1940.57C665.013 1916.34 663.33 1890.43 663.33 1863.21C663.33 1863.21 883.983 1917.15 1163.6 1929.93C1334.55 1937.79 1494.9 1919.93 1657.75 1900.5ZM1907.71 1515.66V860.934C1907.71 727.114 1873.63 620.762 1805.2 542.098C1734.64 463.433 1642.19 423.088 1527.49 423.088C1394.76 423.088 1294.24 474.128 1227.79 576.176L1163.16 684.492L1098.56 576.176C1032.11 474.128 931.593 423.088 798.865 423.088C684.126 423.088 591.712 463.433 521.154 542.098C452.716 620.762 418.637 727.114 418.637 860.934V1515.66H678.015V880.171C678.015 746.195 734.386 678.225 847.13 678.225C971.752 678.225 1034.23 758.854 1034.23 918.365V1266.23H1292.12V918.365C1292.12 758.854 1354.57 678.225 1479.22 678.225C1591.96 678.225 1648.3 746.195 1648.3 880.171V1515.66H1907.71Z" fill="#5C6784"/>
</svg>
