<svg version="1.1" xmlns="http://www.w3.org/2000/svg" viewBox="0 0 1840 652.6873998653191" width="1840" height="652.6873998653191">
  <g stroke-linecap="round" transform="translate(10 10) rotate(0 308 308)">
    <path d="M337.35 0.74 C359.64 -2.02, 383.5 8.56, 404.92 15.92 C426.34 23.29, 446.39 33.11, 465.85 44.95 C485.31 56.79, 505.14 71.12, 521.67 86.95 C538.21 102.78, 552.62 120.93, 565.03 139.91 C577.44 158.89, 588.26 179.65, 596.16 200.83 C604.06 222.01, 609.31 244.43, 612.43 266.98 C615.54 289.53, 616.67 313.32, 614.85 336.13 C613.02 358.94, 608.64 381.91, 601.47 403.83 C594.3 425.75, 583.7 448.22, 571.84 467.66 C559.99 487.11, 546.23 504.32, 530.36 520.51 C514.48 536.7, 495.88 552.26, 476.58 564.81 C457.28 577.35, 435.81 587.64, 414.57 595.78 C393.32 603.91, 371.71 610.47, 349.13 613.62 C326.55 616.78, 302.03 617.03, 279.09 614.72 C256.15 612.4, 233.2 606.72, 211.51 599.72 C189.81 592.72, 168.57 584.46, 148.92 572.69 C129.27 560.93, 109.96 545.09, 93.6 529.15 C77.23 513.21, 63.21 496.1, 50.75 477.06 C38.28 458.01, 26.81 436.31, 18.82 414.88 C10.84 393.44, 5.86 371.1, 2.81 348.47 C-0.24 325.83, -1.67 301.77, 0.54 279.05 C2.75 256.34, 8.81 233.75, 16.06 212.15 C23.31 190.56, 32.52 169.19, 44.05 149.49 C55.59 129.78, 69.44 110.26, 85.26 93.9 C101.08 77.54, 119.75 63.69, 138.96 51.32 C158.16 38.95, 179.02 27.74, 200.49 19.68 C221.96 11.61, 242.48 5.56, 267.78 2.92 C293.07 0.28, 335.79 2.42, 352.26 3.84 C368.73 5.26, 367.45 6.46, 366.58 11.44 M337.92 1.51 C360.04 -1.14, 384.73 9.17, 406.63 16.62 C428.53 24.08, 449.69 34.33, 469.3 46.25 C488.91 58.16, 507.82 72.08, 524.29 88.11 C540.75 104.13, 555.69 123.42, 568.08 142.39 C580.47 161.37, 590.96 180.52, 598.61 201.97 C606.26 223.43, 611.13 247.99, 613.98 271.14 C616.83 294.28, 618.31 318.12, 615.7 340.86 C613.1 363.6, 605.84 386.14, 598.34 407.57 C590.85 429.01, 582.53 450.03, 570.71 469.48 C558.89 488.93, 543.2 507.78, 527.41 524.28 C511.63 540.78, 495.32 556.17, 475.97 568.48 C456.62 580.79, 433.01 590.54, 411.32 598.13 C389.63 605.72, 368.08 611.48, 345.82 614.03 C323.56 616.58, 300.5 615.57, 277.75 613.43 C254.99 611.28, 230.91 608.52, 209.27 601.16 C187.63 593.8, 167.54 581.28, 147.91 569.26 C128.29 557.25, 108.22 544.66, 91.52 529.07 C74.83 513.48, 59.83 494.86, 47.75 475.7 C35.67 456.55, 26.81 435.98, 19.06 414.12 C11.32 392.26, 4.18 367.49, 1.28 344.55 C-1.63 321.61, -0.89 299.23, 1.61 276.48 C4.11 253.74, 8.94 229.81, 16.29 208.08 C23.64 186.36, 33.9 165.57, 45.69 146.14 C57.48 126.71, 71.22 107.52, 87.02 91.51 C102.82 75.49, 121.31 62.28, 140.51 50.04 C159.7 37.8, 180.58 26.02, 202.18 18.09 C223.79 10.17, 247.11 5.49, 270.13 2.5 C293.15 -0.5, 328.86 -0.53, 340.3 0.1 C351.74 0.74, 339.37 0.83, 338.77 6.33" stroke="#000000" stroke-width="4" fill="none"></path>
  </g>
  <g stroke-linecap="round" transform="translate(194 92) rotate(0 44 44)">
    <path d="M12.18 14.56 C12.18 14.56, 12.18 14.56, 12.18 14.56 M12.18 14.56 C12.18 14.56, 12.18 14.56, 12.18 14.56 M9.28 45.16 C22.89 34.66, 27.07 19.78, 40.69 7.7 M10.35 41.35 C17 33.39, 25.04 25.14, 38.71 6.98 M6.97 69.35 C25.69 47.24, 50.87 24.67, 57.86 4.81 M7.88 66.69 C24.05 47.49, 39.06 29.81, 62.13 6.13 M23.36 73.76 C36.43 56.33, 52.93 44.76, 74.27 19.01 M19.44 77.65 C37.57 57.73, 55.39 39.03, 76.44 15.87 M33.25 91.35 C55.17 65.58, 76.51 38.84, 86.56 24.72 M33.12 88.46 C44.4 73.75, 56.12 60.87, 89.86 24.41 M51.31 94.05 C63.07 82.51, 70.63 66.33, 96.89 40.23 M48.37 92.44 C64.61 78.33, 78.34 57.45, 93.9 42.59" stroke="#228be6" stroke-width="2" fill="none"></path>
    <path d="M76.7 15.45 C82.13 21.04, 85.31 30.42, 86.64 37.99 C87.97 45.55, 87.97 53.44, 84.66 60.85 C81.36 68.25, 73.69 77.6, 66.83 82.44 C59.97 87.27, 50.98 90.33, 43.5 89.87 C36.02 89.4, 28.18 84.09, 21.94 79.66 C15.7 75.23, 9.35 70.35, 6.08 63.31 C2.81 56.27, 1.33 45.53, 2.33 37.42 C3.33 29.32, 7.21 20.89, 12.07 14.69 C16.93 8.48, 24.38 2.31, 31.49 0.18 C38.6 -1.95, 46.47 -1.85, 54.72 1.93 C62.98 5.7, 76.11 18.4, 81 22.84 C85.89 27.29, 84.26 28.39, 84.07 28.61 M5.64 15.74 C10.03 9.76, 22.06 6.47, 29.63 4 C37.2 1.53, 43.85 0.02, 51.06 0.92 C58.28 1.82, 67.15 3.57, 72.91 9.41 C78.68 15.24, 84.02 28.18, 85.66 35.92 C87.29 43.66, 85.01 48.67, 82.71 55.83 C80.42 63, 77.93 73.88, 71.9 78.93 C65.86 83.98, 54.48 85.49, 46.52 86.16 C38.56 86.83, 31.32 86.57, 24.15 82.95 C16.98 79.33, 7.15 71.22, 3.5 64.43 C-0.15 57.64, 1.42 49.79, 2.22 42.21 C3.02 34.63, 7.51 23.15, 8.28 18.95 C9.05 14.74, 6.27 16.23, 6.82 16.98" stroke="#1e1e1e" stroke-width="4" fill="none"></path>
  </g>
  <g stroke-linecap="round" transform="translate(154 430) rotate(0 44 44)">
    <path d="M10.96 12.18 C10.96 12.18, 10.96 12.18, 10.96 12.18 M10.96 12.18 C10.96 12.18, 10.96 12.18, 10.96 12.18 M4.95 40.53 C19.21 27.26, 32.33 11.42, 39.5 7.59 M10.03 37.75 C22.27 27.36, 34.13 11.76, 38.02 3.82 M8.6 62.34 C20.38 45.37, 35.2 33.91, 56.38 4.59 M6.22 64.17 C20.67 47.5, 38.13 29.98, 60.96 5.63 M17.46 77.94 C36.51 57.61, 58.07 37.2, 73.44 16.26 M18.84 78.77 C34.63 59.66, 49.81 38.22, 73.36 11.89 M26.68 89.34 C41.14 69.46, 59.51 57.05, 85.27 20.87 M27.69 92.04 C44.57 71.19, 58.79 54.4, 84.45 24.2 M42.2 94.57 C62.44 76.23, 69.36 65.59, 89.55 38.51 M45.49 93.95 C61.84 75.68, 81.43 55.09, 90.86 40.18" stroke="#fa5252" stroke-width="2" fill="none"></path>
    <path d="M81.26 18.34 C86.35 24.16, 89.39 32.56, 89.88 40.24 C90.37 47.91, 88.3 57.59, 84.21 64.39 C80.11 71.18, 72.76 77.02, 65.3 80.99 C57.85 84.96, 47.58 88.25, 39.48 88.19 C31.38 88.13, 22.9 85.53, 16.71 80.63 C10.52 75.74, 4.63 66.42, 2.35 58.81 C0.07 51.2, 1.52 42.78, 3.01 34.95 C4.49 27.13, 6.14 17.82, 11.23 11.87 C16.33 5.91, 25.79 0.49, 33.57 -0.79 C41.35 -2.08, 49.23 -0.6, 57.94 4.15 C66.64 8.9, 80.97 21.81, 85.82 27.72 C90.68 33.62, 88.15 39.3, 87.05 39.58 M74.07 11.44 C80.32 16.16, 82.78 22.98, 84.84 30.56 C86.9 38.13, 88.92 49.29, 86.44 56.89 C83.97 64.5, 75.77 71, 69.99 76.19 C64.22 81.38, 59.26 86.7, 51.8 88.05 C44.33 89.41, 33.08 88.1, 25.2 84.32 C17.33 80.53, 8.76 71.74, 4.52 65.34 C0.29 58.93, -0.65 53.31, -0.22 45.86 C0.21 38.42, 2.52 27.58, 7.08 20.68 C11.64 13.78, 19.62 7.46, 27.15 4.46 C34.68 1.46, 44.22 1.71, 52.28 2.67 C60.33 3.63, 72.28 8.66, 75.48 10.23 C78.68 11.8, 72.23 11.47, 71.48 12.1" stroke="#1e1e1e" stroke-width="4" fill="none"></path>
  </g>
  <g stroke-linecap="round" transform="translate(404 260) rotate(0 44 44)">
    <path d="M8.07 20.26 C8.07 20.26, 8.07 20.26, 8.07 20.26 M8.07 20.26 C8.07 20.26, 8.07 20.26, 8.07 20.26 M8.64 46.69 C17.53 33.73, 21.37 26.98, 32.7 11.51 M5.84 45.16 C12.97 37.38, 23.89 27.93, 34.71 12.2 M11.9 68.57 C21.4 49.42, 38.34 34.63, 61.08 9.96 M8.83 69.91 C21.14 51.96, 37.1 37.01, 57.74 11.71 M20.38 77.54 C40.57 62.32, 56.35 36.38, 74.26 11.99 M19.66 80.74 C33.49 61.44, 50.68 46.17, 74.69 16.38 M31.57 91.58 C52.97 64.63, 75.42 48.73, 85.82 28.12 M34.33 88.88 C51.19 71.68, 67.75 49.85, 85.85 26.62 M49.59 88.71 C64.11 73.55, 81.3 57.12, 95.86 44.1 M53.84 92.82 C63.58 77.96, 74.55 64.25, 94.64 39.94" stroke="#2f9e44" stroke-width="2" fill="none"></path>
    <path d="M73.52 11.61 C79.6 16.23, 84.36 24.25, 86.12 31.8 C87.89 39.36, 86.44 49.21, 84.1 56.94 C81.77 64.67, 77.86 72.91, 72.13 78.19 C66.4 83.46, 57.4 87.63, 49.72 88.58 C42.05 89.52, 33.04 87.23, 26.07 83.88 C19.1 80.52, 12.05 75.48, 7.92 68.42 C3.78 61.36, 1.3 49.49, 1.27 41.53 C1.24 33.56, 3.28 26.6, 7.75 20.63 C12.22 14.65, 21.2 8.86, 28.09 5.69 C34.98 2.53, 39.04 -4.69, 49.09 1.65 C59.13 7.99, 84.38 31.32, 88.34 43.76 C92.3 56.2, 73.33 76.03, 72.86 76.28 M9.85 19.32 C13.48 12.92, 19.46 5.26, 27.29 2.6 C35.12 -0.06, 49.17 1.88, 56.82 3.37 C64.48 4.85, 67.79 6.56, 73.2 11.5 C78.6 16.44, 86.9 24.67, 89.26 32.99 C91.62 41.31, 90.12 54.01, 87.36 61.43 C84.6 68.86, 79.86 73.13, 72.7 77.55 C65.53 81.97, 52.81 87.14, 44.37 87.94 C35.92 88.75, 28.96 86.22, 22.02 82.36 C15.08 78.5, 6.61 72.15, 2.74 64.8 C-1.12 57.45, -1.93 46.52, -1.17 38.25 C-0.41 29.98, 5.07 18.98, 7.29 15.17 C9.51 11.36, 11.34 14.71, 12.15 15.4" stroke="#1e1e1e" stroke-width="4" fill="none"></path>
  </g>
  <g stroke-linecap="round" transform="translate(1214 14) rotate(0 308 308)">
    <path d="M316.94 -0.54 C338.67 -4.75, 361.75 4.85, 383.71 10.47 C405.68 16.1, 428.16 22.81, 448.71 33.21 C469.27 43.61, 489.66 58.12, 507.05 72.85 C524.45 87.58, 539.49 103.38, 553.08 121.6 C566.67 139.82, 579.09 161.39, 588.59 182.19 C598.1 202.98, 605.37 223.98, 610.08 246.38 C614.8 268.78, 617.51 293.58, 616.89 316.57 C616.27 339.55, 612.19 362.41, 606.37 384.3 C600.55 406.19, 592.31 427.45, 581.98 447.91 C571.65 468.36, 559.14 489.32, 544.38 507.04 C529.62 524.76, 511.62 540.5, 493.42 554.25 C475.23 568, 456.11 580.27, 435.2 589.55 C414.29 598.84, 390.65 605.55, 367.97 609.94 C345.3 614.33, 321.94 616.41, 299.14 615.88 C276.33 615.36, 253.26 612.53, 231.14 606.78 C209.01 601.03, 186.71 591.98, 166.4 581.38 C146.08 570.78, 126.5 557.96, 109.24 543.19 C91.98 528.42, 76.52 510.79, 62.82 492.78 C49.13 474.77, 36.6 455.94, 27.08 435.12 C17.56 414.3, 10.19 390.28, 5.69 367.85 C1.2 345.42, -0.7 323.36, 0.11 300.54 C0.93 277.72, 4.9 253.33, 10.59 230.93 C16.28 208.54, 23.98 186.49, 34.25 166.18 C44.52 145.87, 57.63 126.56, 72.21 109.07 C86.8 91.59, 103.54 74.85, 121.76 61.27 C139.97 47.69, 160.52 36.93, 181.5 27.6 C202.48 18.26, 224.17 9.79, 247.62 5.29 C271.08 0.79, 308.58 0.46, 322.22 0.62 C335.86 0.77, 329.58 1.23, 329.46 6.22 M287.91 0.36 C309.28 -5.79, 334.07 1.5, 356.25 4.96 C378.44 8.43, 399.95 12.82, 421.01 21.15 C442.07 29.48, 463.8 41.87, 482.6 54.95 C501.4 68.02, 518.57 82.88, 533.81 99.62 C549.04 116.35, 562.31 135.7, 574 155.37 C585.68 175.04, 596.93 195.56, 603.9 217.63 C610.87 239.7, 614.41 264.8, 615.8 287.79 C617.19 310.78, 616.01 333.24, 612.22 355.55 C608.43 377.87, 601.4 400.39, 593.06 421.7 C584.73 443.01, 574.79 464.36, 562.21 483.43 C549.63 502.51, 534.51 520.6, 517.59 536.17 C500.67 551.74, 480.53 565.76, 460.69 576.85 C440.86 587.93, 420.48 596.42, 398.6 602.68 C376.71 608.94, 352.63 612.85, 329.39 614.41 C306.16 615.96, 281.84 615.27, 259.18 612.02 C236.53 608.76, 214.48 603.48, 193.47 594.89 C172.46 586.3, 151.91 573.57, 133.14 560.47 C114.37 547.38, 96.38 532.95, 80.87 516.32 C65.37 499.7, 51.5 480.49, 40.11 460.71 C28.72 440.93, 19.2 419.53, 12.53 397.62 C5.85 375.71, 1.74 351.86, 0.06 329.26 C-1.63 306.67, -1.27 284.75, 2.41 262.05 C6.1 239.36, 13.67 214.42, 22.17 193.09 C30.67 171.76, 40.63 152.96, 53.39 134.1 C66.16 115.24, 81.78 95.36, 98.77 79.93 C115.76 64.5, 135.19 52.44, 155.33 41.53 C175.48 30.62, 197.94 21.4, 219.65 14.48 C241.36 7.55, 274.35 1.27, 285.6 -0.02 C296.85 -1.32, 286.87 1.31, 287.14 6.71" stroke="#000000" stroke-width="4" fill="none"></path>
  </g>
  <g stroke-linecap="round" transform="translate(1492 390) rotate(0 44 44)">
    <path d="M4.84 24.08 C4.84 24.08, 4.84 24.08, 4.84 24.08 M4.84 24.08 C4.84 24.08, 4.84 24.08, 4.84 24.08 M5.1 53.51 C17.08 38.39, 27.1 30.13, 47.58 -1.37 M2.26 51.38 C14.83 36.5, 25.45 25.41, 47.17 -0.94 M8.48 64.39 C26.34 53.61, 33.36 34.63, 65.22 3.7 M10.71 69.34 C19.58 52.8, 32.5 40.43, 61.28 7.03 M21.11 82.73 C36.33 57.52, 51.33 38.12, 80.11 11 M20.91 77.5 C42.57 53.19, 61.76 31.97, 75.67 13.97 M29.71 89.98 C44.61 71.16, 57.14 64.28, 84.8 31.94 M32.23 87.61 C54.53 66.23, 71.48 40.61, 86.25 28.64 M55.73 90.79 C59.45 79.89, 67.32 74.6, 91.13 47.58 M53.15 90.75 C62.85 78.03, 77.23 61.07, 86.95 50.28" stroke="#1971c2" stroke-width="2" fill="none"></path>
    <path d="M21.33 7.28 C27.27 3.01, 38.15 -2.06, 46.55 -1.66 C54.94 -1.26, 65.48 4.93, 71.68 9.69 C77.89 14.44, 81.33 19.47, 83.79 26.86 C86.26 34.26, 87.84 46.39, 86.48 54.08 C85.12 61.76, 80.74 67.33, 75.61 72.98 C70.48 78.63, 63.49 85.93, 55.71 87.98 C47.93 90.03, 36.7 88.46, 28.93 85.27 C21.17 82.08, 13.7 74.85, 9.12 68.82 C4.54 62.79, 2.21 56.51, 1.46 49.08 C0.72 41.66, -1.98 32.2, 4.67 24.27 C11.32 16.35, 32.84 5.1, 41.36 1.54 C49.87 -2.02, 56.26 2.4, 55.77 2.9 M20.51 4.29 C26.28 0.68, 36.93 1.08, 44.66 1.72 C52.4 2.36, 59.82 3.97, 66.91 8.14 C74 12.31, 84.23 19.35, 87.19 26.74 C90.15 34.13, 86.29 44.05, 84.67 52.49 C83.05 60.93, 82.89 71.6, 77.46 77.4 C72.03 83.2, 60.57 85.98, 52.07 87.3 C43.58 88.62, 33.98 88.29, 26.51 85.32 C19.05 82.34, 12.18 75.72, 7.3 69.43 C2.41 63.15, -2.66 55.08, -2.81 47.61 C-2.95 40.15, 2.63 32.06, 6.41 24.64 C10.19 17.21, 17.06 6.23, 19.88 3.05 C22.69 -0.12, 22.92 4.54, 23.3 5.56" stroke="#1e1e1e" stroke-width="4" fill="none"></path>
  </g>
  <g stroke-linecap="round" transform="translate(232 264) rotate(0 44 44)">
    <path d="M17.32 7.1 C17.32 7.1, 17.32 7.1, 17.32 7.1 M17.32 7.1 C17.32 7.1, 17.32 7.1, 17.32 7.1 M16.1 37.09 C26.07 28, 32.57 12.41, 40.94 -2.2 M12.12 35.64 C20.74 26.91, 29.23 17.14, 42.19 2.04 M14.34 64.5 C21.24 46.81, 39.26 32.09, 58.97 4.16 M9.53 62.53 C29.14 40.65, 45.91 20.29, 62.43 5.5 M17.23 78.94 C37.19 52.59, 64.18 25.47, 78.1 12.56 M17.91 79.09 C36.14 59.67, 56.25 34.39, 73.54 12.06 M32.22 82.36 C53.46 66.42, 71.46 45.62, 88.29 27.78 M35.29 87.22 C53.84 61.17, 75.6 39.69, 83.71 27.59 M46.22 92.43 C54.82 85.49, 67.59 71.22, 91.29 47.18 M44.99 96.28 C60.07 78.35, 71.65 65.1, 89.07 44.91" stroke="#9c36b5" stroke-width="2" fill="none"></path>
    <path d="M17.33 7.08 C23.46 1.97, 34.66 1.77, 42.39 1.25 C50.11 0.72, 57.11 0.15, 63.71 3.92 C70.31 7.7, 77.92 17.04, 81.99 23.92 C86.06 30.8, 88.26 37.27, 88.14 45.18 C88.02 53.09, 86.06 64.71, 81.27 71.37 C76.49 78.02, 67.16 82.81, 59.42 85.11 C51.69 87.41, 42.38 86.57, 34.86 85.18 C27.33 83.78, 20 81.87, 14.27 76.75 C8.54 71.64, 2.13 62.26, 0.49 54.47 C-1.15 46.69, -2.25 39.11, 4.43 30.03 C11.12 20.95, 30.49 3.79, 40.59 0 C50.68 -3.79, 64.92 6.43, 65.01 7.3 M11.59 14.28 C16.35 8.79, 23.89 2.89, 32.3 0.83 C40.7 -1.24, 54.59 -0.98, 62.03 1.88 C69.47 4.73, 72.35 10.92, 76.95 17.97 C81.55 25.02, 89.07 36.19, 89.62 44.18 C90.18 52.18, 84.91 59.53, 80.27 65.93 C75.63 72.33, 68.75 79.2, 61.78 82.58 C54.81 85.96, 46.35 86.87, 38.45 86.2 C30.54 85.53, 20.06 82.94, 14.33 78.56 C8.61 74.18, 6.68 67.78, 4.09 59.94 C1.51 52.09, -2.79 39.56, -1.15 31.5 C0.48 23.44, 11.78 14.7, 13.9 11.59 C16.02 8.47, 11.5 12.17, 11.58 12.79" stroke="#1e1e1e" stroke-width="4" fill="none"></path>
  </g>
  <g stroke-linecap="round" transform="translate(1568 112) rotate(0 44 44)">
    <path d="M10.57 15.81 C10.57 15.81, 10.57 15.81, 10.57 15.81 M10.57 15.81 C10.57 15.81, 10.57 15.81, 10.57 15.81 M11.27 46.85 C18.59 29.55, 28.4 12.41, 38.18 5.69 M7.07 43.53 C18 31.52, 28.56 19.26, 38.11 7.03 M7.02 62.97 C21.91 50.35, 27.4 39.92, 63.6 9.42 M10.17 65.23 C28.12 44.79, 49.41 22.7, 62.56 6.81 M17.82 77.06 C44.39 50.81, 65.8 28.06, 76.34 15.98 M18.5 80.2 C30.48 64.51, 42.65 48.78, 75.68 13.73 M30.52 92.8 C48.87 73.13, 71.94 49.07, 91.59 22.14 M29.75 88.4 C43.77 73.81, 55.85 58.55, 86.08 26.08 M49.38 93.51 C65.93 75.65, 77.63 64.6, 93.55 43.44 M50.25 90.76 C62.31 77.48, 75.78 61.69, 94.95 42.85" stroke="#e8590c" stroke-width="2" fill="none"></path>
    <path d="M79.04 16.52 C84.23 21.9, 85.57 28.74, 86.29 36.59 C87 44.44, 86.4 56.49, 83.32 63.61 C80.24 70.72, 74.07 75.05, 67.8 79.29 C61.54 83.53, 53.7 88.82, 45.72 89.07 C37.75 89.32, 26.9 85.6, 19.95 80.78 C12.99 75.97, 7.01 67.15, 3.99 60.19 C0.97 53.24, 0.74 46.41, 1.81 39.05 C2.88 31.68, 5.1 22.02, 10.39 16.02 C15.68 10.02, 26.08 5.4, 33.56 3.03 C41.03 0.67, 47.54 -1.15, 55.24 1.82 C62.94 4.78, 75.18 16.46, 79.75 20.82 C84.32 25.17, 83.27 27.75, 82.66 27.96 M19.78 5.5 C26.7 0.84, 41.02 -1.46, 48.97 -0.95 C56.93 -0.45, 61.19 3.18, 67.49 8.53 C73.79 13.88, 83.87 23.65, 86.77 31.13 C89.68 38.61, 87.31 46.17, 84.93 53.41 C82.54 60.65, 78 69.26, 72.47 74.57 C66.95 79.87, 59.5 83.51, 51.77 85.24 C44.03 86.97, 32.94 87.22, 26.06 84.95 C19.18 82.69, 15.2 78.34, 10.51 71.66 C5.81 64.97, -1.33 53.05, -2.1 44.83 C-2.86 36.6, 2.17 28.9, 5.9 22.29 C9.64 15.67, 17.78 7.87, 20.32 5.15 C22.85 2.43, 20.21 5.54, 21.11 5.95" stroke="#1e1e1e" stroke-width="4" fill="none"></path>
  </g>
  <g stroke-linecap="round" transform="translate(1412 202) rotate(0 44 44)">
    <path d="M13.06 12.68 C13.06 12.68, 13.06 12.68, 13.06 12.68 M13.06 12.68 C13.06 12.68, 13.06 12.68, 13.06 12.68 M12.25 38.79 C15.41 28.32, 31.56 20.62, 40.44 4.35 M7.58 41.29 C20.55 31.76, 28.65 20.13, 42.01 4.72 M12.15 62.49 C31.53 40.9, 40.93 25.03, 61.3 3.88 M9.45 65.18 C29.54 43.64, 46.79 21.05, 63.33 5.71 M20.72 80.94 C40.11 54.64, 58.46 32.58, 74.26 14.45 M18.78 79.56 C29.93 65.5, 40.98 52.06, 75.34 13.77 M31.19 88.5 C51.93 64.09, 68.23 47.82, 87.18 28.07 M34.93 84.7 C48.86 70.2, 61.42 52.88, 89 22.62 M50.1 97.28 C62.37 73.55, 81.2 59.8, 94.21 48.45 M45.63 95.58 C64.01 80.17, 78.55 59.97, 89.24 44.93" stroke="#0c8599" stroke-width="2" fill="none"></path>
    <path d="M37.97 1.41 C45.24 -0.07, 53.1 2.36, 60.33 5.26 C67.56 8.17, 76.9 12.71, 81.35 18.83 C85.8 24.94, 86.98 34.13, 87.03 41.94 C87.08 49.74, 85.26 58.84, 81.65 65.67 C78.03 72.5, 72.24 79.03, 65.34 82.91 C58.44 86.8, 48.22 89.56, 40.25 88.98 C32.28 88.4, 23.95 84.82, 17.51 79.46 C11.06 74.11, 4.37 64.47, 1.59 56.85 C-1.19 49.24, -1.05 41.07, 0.81 33.76 C2.67 26.46, 3.14 18.14, 12.75 13.03 C22.37 7.91, 48.36 3.13, 58.5 3.09 C68.63 3.04, 73.55 12.14, 73.56 12.76 M27.29 1.31 C34.84 -1.11, 49.34 1.54, 57.87 3.8 C66.4 6.06, 73.22 9.62, 78.47 14.86 C83.71 20.11, 88.11 27.38, 89.34 35.27 C90.56 43.15, 89.25 54.62, 85.81 62.16 C82.38 69.7, 75.62 76.24, 68.71 80.53 C61.8 84.82, 52.42 88.07, 44.34 87.9 C36.25 87.73, 27.11 83.27, 20.21 79.5 C13.31 75.73, 6.45 71.78, 2.94 65.28 C-0.58 58.77, -1.71 48.35, -0.88 40.47 C-0.05 32.59, 2.79 24.2, 7.92 18 C13.04 11.8, 25.9 5.65, 29.85 3.26 C33.8 0.87, 31.73 3.15, 31.61 3.67" stroke="#1e1e1e" stroke-width="4" fill="none"></path>
  </g>
  <g stroke-linecap="round">
    <g transform="translate(284 134) rotate(0 640.9009046747163 -51.80150737486292)">
      <path d="M0.01 0.07 C108.87 -18.36, 440.2 -111.9, 653.68 -110.91 C867.17 -109.92, 1176.08 -13.62, 1280.92 6 M-1.44 -0.94 C107.18 -19.22, 438.45 -111.23, 652.57 -109.85 C866.68 -108.48, 1178.12 -11.76, 1283.24 7.32" stroke="#1e1e1e" stroke-width="4" fill="none"></path>
    </g>
    <g transform="translate(284 134) rotate(0 640.9009046747163 -51.80150737486292)">
      <path d="M1253.57 10.31 C1262.22 7.82, 1274.03 9.54, 1284.54 6.71 M1253.66 10.14 C1264.83 10.01, 1273.7 9.32, 1282.29 6.56" stroke="#1e1e1e" stroke-width="4" fill="none"></path>
    </g>
    <g transform="translate(284 134) rotate(0 640.9009046747163 -51.80150737486292)">
      <path d="M1258.27 -9.66 C1265.25 -5.26, 1275.43 3.35, 1284.54 6.71 M1258.36 -9.83 C1267.94 -2.99, 1275.17 3.29, 1282.29 6.56" stroke="#1e1e1e" stroke-width="4" fill="none"></path>
    </g>
  </g>
  <mask></mask>
  <g stroke-linecap="round">
    <g transform="translate(498 316) rotate(0 453.94917543681595 -3.2439361196675236)">
      <path d="M1.05 0.89 C87.33 8.75, 365.53 56.24, 516.65 46.85 C667.77 37.47, 842.35 -38.44, 907.76 -55.4 M0.14 0.31 C86.41 8.3, 364.92 56.84, 516.04 47.79 C667.16 38.74, 841.84 -36.51, 906.86 -53.98" stroke="#1e1e1e" stroke-width="4" fill="none"></path>
    </g>
    <g transform="translate(498 316) rotate(0 453.94917543681595 -3.2439361196675236)">
      <path d="M884.8 -34.3 C886.48 -39.95, 893.74 -41.75, 908.08 -52.62 M884.1 -34.5 C889.77 -39.33, 895.07 -44.74, 907.7 -53.22" stroke="#1e1e1e" stroke-width="4" fill="none"></path>
    </g>
    <g transform="translate(498 316) rotate(0 453.94917543681595 -3.2439361196675236)">
      <path d="M878.35 -53.78 C881.36 -55.33, 889.99 -52.98, 908.08 -52.62 M877.65 -53.98 C884.79 -54.3, 891.58 -55.19, 907.7 -53.22" stroke="#1e1e1e" stroke-width="4" fill="none"></path>
    </g>
  </g>
  <mask></mask>
  <g stroke-linecap="round">
    <g transform="translate(316.00000000000006 346) rotate(0 581.9169517133384 60.19846040554967)">
      <path d="M-0.56 -0.06 C94.97 19.6, 379.02 100.32, 573.18 116.8 C767.34 133.28, 1066.07 101.76, 1164.39 98.82 M1.35 -1.14 C96.82 18.29, 379.11 98.75, 572.85 115.09 C766.6 131.43, 1065.49 99.89, 1163.83 96.9" stroke="#1e1e1e" stroke-width="4" fill="none"></path>
    </g>
    <g transform="translate(316.00000000000006 346) rotate(0 581.9169517133384 60.19846040554967)">
      <path d="M1136.23 110.86 C1146.03 106.08, 1154.32 100.38, 1165.73 96.28 M1136.8 108.19 C1145.27 104.22, 1153.29 101.3, 1163.68 96.58" stroke="#1e1e1e" stroke-width="4" fill="none"></path>
    </g>
    <g transform="translate(316.00000000000006 346) rotate(0 581.9169517133384 60.19846040554967)">
      <path d="M1134.96 90.38 C1144.94 91.75, 1153.6 92.19, 1165.73 96.28 M1135.53 87.71 C1144.57 89.78, 1152.97 92.91, 1163.68 96.58" stroke="#1e1e1e" stroke-width="4" fill="none"></path>
    </g>
  </g>
  <mask></mask>
  <g stroke-linecap="round">
    <g transform="translate(236 516) rotate(0 631.0059017393739 47.51161064990174)">
      <path d="M-0.34 0.63 C101.52 21.46, 401.91 130.72, 612.36 125.33 C822.81 119.95, 1153.94 -5.33, 1262.35 -31.66 M1.68 -0.09 C103.31 20.86, 401.59 131.54, 611.6 126.52 C821.62 121.51, 1153.12 -3.77, 1261.77 -30.17" stroke="#1e1e1e" stroke-width="4" fill="none"></path>
    </g>
    <g transform="translate(236 516) rotate(0 631.0059017393739 47.51161064990174)">
      <path d="M1238.76 -11.65 C1246.16 -18.76, 1257.45 -25.11, 1260.69 -31.42 M1238.48 -12.69 C1244.54 -17.16, 1249.98 -21.58, 1261.5 -29.53" stroke="#1e1e1e" stroke-width="4" fill="none"></path>
    </g>
    <g transform="translate(236 516) rotate(0 631.0059017393739 47.51161064990174)">
      <path d="M1232.87 -31.31 C1242.69 -30.54, 1256.32 -29.04, 1260.69 -31.42 M1232.59 -32.35 C1240.15 -31.49, 1247.19 -30.55, 1261.5 -29.53" stroke="#1e1e1e" stroke-width="4" fill="none"></path>
    </g>
  </g>
  <mask></mask>
</svg>
