<svg id="Layer_1" data-name="Layer 1" xmlns="http://www.w3.org/2000/svg" viewBox="0 0 2400.06 2400.06"><defs><style>.cls-1{fill:#5c6784;}.cls-2{fill:#fff;}</style></defs><title>twitter-icon</title><path class="cls-1" d="M1200,0C537.27,0,0,537.3,0,1200.06s537.27,1200,1200,1200,1200-537.27,1200-1200S1862.79,0,1200,0Zm769.6,715.73a643.17,643.17,0,0,1-157.74,163.65c.66,13.55,1,27.14,1,40.84,0,417.2-317.58,898.27-898.27,898.27a893.51,893.51,0,0,1-484-141.91,635.7,635.7,0,0,0,467.43-130.69c-138.11-2.58-254.71-93.85-294.89-219.24a320.61,320.61,0,0,0,59.43,5.56,314.09,314.09,0,0,0,83.19-11.07c-144.44-29-253.25-156.57-253.25-309.55v-4a314.27,314.27,0,0,0,143,39.47,316,316,0,0,1-97.7-421.49c155.71,191,388.34,316.67,650.74,329.86a319.28,319.28,0,0,1-8.14-72c0-174.41,141.36-315.72,315.67-315.72a315.25,315.25,0,0,1,230.45,99.66,630.76,630.76,0,0,0,200.54-76.61A316.68,316.68,0,0,1,1788.29,765.5a630.6,630.6,0,0,0,181.34-49.74Z" transform="translate(0 -0.03)"/><polygon class="cls-2" points="1969.63 715.73 1969.63 715.73 1969.63 715.73 1969.63 715.73"/></svg>