<svg id="Layer_1" data-name="Layer 1" xmlns="http://www.w3.org/2000/svg" viewBox="0 0 2399.96 2399.96"><defs><style>.cls-1{fill:#5c6784;}</style></defs><title>linkedin-icon</title><path class="cls-1" d="M1200,0C537.33,0,0,537.33,0,1200S537.33,2400,1200,2400s1200-537.29,1200-1200S1862.71,0,1200,0ZM1000,1600H800V1000h200ZM900,910.92c-60.7,0-110-49.6-110-110.9s49.2-110.89,110-110.89S1010,738.82,1010,800,960.72,910.92,900,910.92ZM1700,1600h-199.8V1313.92c0-188.1-200.19-172.2-200.19,0V1600H1100V1000h200v109.3c87.2-161.6,400-173.6,400,154.8Z" transform="translate(-0.04 -0.04)"/></svg>