<svg id="Layer_1" data-name="Layer 1" xmlns="http://www.w3.org/2000/svg" viewBox="0 0 2400 1309.51"><defs><style>.cls-1{fill:#1d263b;}.cls-2{fill:#5c6784;}</style></defs><title>personalLogoTransparentTrim</title><path class="cls-1" d="M2400,1309.77s-104.15-153.35-151.25-224.37c-3.34-5-6.88-6.67-12.75-6.66-68.15.09-229.83,0-356.81,0q-359-538.56-710.94-1066.51c-2.5-3.76-5.82-7.09-6.93-11.69H833.84c1.11,4.6,4.42,7.94,6.93,11.69Q1052.51,330,1264.47,647.56c3.89,5.84,4.21,9.73.13,15.84q-212.71,318.45-424.93,637.23c-1.87,2.82-5.35,5.13-4.38,9.37h326c17.81-27,35.54-54,53.45-80.84q106.9-160.5,213.92-320.92c1.33-2,2.71-4,4-5.92,2.42.44,3,2.45,4,4q132.63,199,265.2,398c1.17,1.75,2.85,2.94,4.21,5.7h326s0-.07,0-.11Z" transform="translate(0 -0.49)"/><path class="cls-2" d="M1155.79,648.46Q939.75,324.83,724,1h-4.34V.49L0,.72s100.92,150.89,148.68,222.9c3.38,5.1,7,6.76,12.92,6.75,71.48-.09,251.58-.05,388,.06q139.6,209.38,279.3,418.73c3.29,4.92,3.37,8.16,0,13.15Q695.48,862.22,562.23,1062.23q-83-124.54-166-249.09H68.76q162.74,243.92,325.31,488c1.56,2.33,4,4.28,4,7.45h.19a5.64,5.64,0,0,0-.2,1.45H725.44c.06-3.17,2.47-5.12,4-7.45Q942.62,982.62,1156,662.86C1159.77,657.24,1159.33,653.77,1155.79,648.46Z" transform="translate(0 -0.49)"/></svg>